{
  "accessors": [
    {
      "bufferView": 2,
      "componentType": 5126,
      "count": 20602,
      "max": [
        0.061643999069929123,
        -0.00018200000340584666,
        0.15184000134468079
      ],
      "min": [
        -0.048347998410463333,
        -0.12872299551963806,
        -0.14883899688720703
      ],
      "type": "VEC3"
    },
    {
      "bufferView": 2,
      "byteOffset": 247224,
      "componentType": 5126,
      "count": 20602,
      "max": [
        0.99995154142379761,
        0.99999880790710449,
        0.99981606006622314
      ],
      "min": [
        -0.99998050928115845,
        -0.99999147653579712,
        -0.99936550855636597
      ],
      "type": "VEC3"
    },
    {
      "bufferView": 3,
      "componentType": 5126,
      "count": 20602,
      "max": [
        1,
        0.99999892711639404,
        0.99999994039535522,
        1
      ],
      "min": [
        -1,
        -0.99999916553497314,
        -0.99999970197677612,
        -1
      ],
      "type": "VEC4"
    },
    {
      "bufferView": 1,
      "componentType": 5126,
      "count": 20602,
      "max": [
        0.99500000476837158,
        0.87978798151016235
      ],
      "min": [
        0.004999999888241291,
        0.004999999888241291
      ],
      "type": "VEC2"
    },
    {
      "bufferView": 0,
      "componentType": 5125,
      "count": 89994,
      "max": [
        20601
      ],
      "min": [
        0
      ],
      "type": "SCALAR"
    }
  ],
  "asset": {
    "extras": {
      "author": "grafi (https://sketchfab.com/zdenkoroman)",
      "license": "CC-BY-4.0 (http://creativecommons.org/licenses/by/4.0/)",
      "source": "https://sketchfab.com/3d-models/pull-bear-shoe-sneakers-3d-scan-f9ffc61a7eb94e468863aa9d782acc17",
      "title": "Pull & Bear Shoe Sneakers 3D Scan"
    },
    "generator": "Sketchfab-8.20.0",
    "version": "2.0"
  },
  "bufferViews": [
    {
      "buffer": 0,
      "byteLength": 359976,
      "byteOffset": 0,
      "name": "floatBufferViews",
      "target": 34963
    },
    {
      "buffer": 0,
      "byteLength": 164816,
      "byteOffset": 359976,
      "byteStride": 8,
      "name": "floatBufferViews",
      "target": 34962
    },
    {
      "buffer": 0,
      "byteLength": 494448,
      "byteOffset": 524792,
      "byteStride": 12,
      "name": "floatBufferViews",
      "target": 34962
    },
    {
      "buffer": 0,
      "byteLength": 329632,
      "byteOffset": 1019240,
      "byteStride": 16,
      "name": "floatBufferViews",
      "target": 34962
    }
  ],
  "buffers": [
    {
      "byteLength": 1348872,
      "uri": "scene.bin"
    }
  ],
  "images": [
    {
      "uri": "textures/pull_low_baseColor.jpeg"
    },
    {
      "uri": "textures/pull_low_metallicRoughness.png"
    },
    {
      "uri": "textures/pull_low_normal.jpeg"
    }
  ],
  "materials": [
    {
      "doubleSided": true,
      "name": "pull_low",
      "normalTexture": {
        "index": 2,
        "scale": 1,
        "texCoord": 0
      },
      "occlusionTexture": {
        "index": 1,
        "strength": 1,
        "texCoord": 0
      },
      "pbrMetallicRoughness": {
        "baseColorFactor": [
          1,
          1,
          1,
          1
        ],
        "baseColorTexture": {
          "index": 0,
          "texCoord": 0
        },
        "metallicFactor": 1,
        "metallicRoughnessTexture": {
          "index": 1,
          "texCoord": 0
        },
        "roughnessFactor": 1
      }
    }
  ],
  "meshes": [
    {
      "primitives": [
        {
          "attributes": {
            "NORMAL": 1,
            "POSITION": 0,
            "TANGENT": 2,
            "TEXCOORD_0": 3
          },
          "indices": 4,
          "material": 0,
          "mode": 4
        }
      ]
    }
  ],
  "nodes": [
    {
      "children": [
        1
      ],
      "name": "RootNode (gltf orientation matrix)",
      "rotation": [
        -0.70710678118654746,
        -0,
        -0,
        0.70710678118654757
      ]
    },
    {
      "children": [
        2
      ],
      "matrix": [
        -0.99998784065246582,
        0.0049290424212813377,
        8.3700407715880942e-17,
        0,
        -8.2833045977892539e-17,
        -1.1102230246251565e-16,
        -1,
        0,
        -0.0049290424212813377,
        -0.99998784065246582,
        -4.4408920985006262e-16,
        0,
        0.013303385116159916,
        -0.062984436750411987,
        -0.062951654195785522,
        1
      ],
      "name": "RootNode (model correction matrix)"
    },
    {
      "children": [
        3
      ],
      "name": "pull_low.obj.cleaner.materialmerger.gles"
    },
    {
      "mesh": 0,
      "name": ""
    }
  ],
  "samplers": [
    {
      "magFilter": 9729,
      "minFilter": 9987,
      "wrapS": 10497,
      "wrapT": 10497
    }
  ],
  "scene": 0,
  "scenes": [
    {
      "name": "OSG_Scene",
      "nodes": [
        0
      ]
    }
  ],
  "textures": [
    {
      "sampler": 0,
      "source": 0
    },
    {
      "sampler": 0,
      "source": 1
    },
    {
      "sampler": 0,
      "source": 2
    }
  ]
}

